<svg xmlns="http://www.w3.org/2000/svg" width="16" height="19" viewBox="0 0 16 19" fill="none"><path fill-rule="evenodd" clip-rule="evenodd" d="M15.1488 0.416016H15.149H15.198V7.56771H13.3808H12.9406H11.0935V14.0015H8.96479V5.01142H11.0935V5.01478H12.9406C12.9405 4.33087 12.9403 3.64714 12.9403 2.96323H0.788135L0.787832 2.91163H0.785713L0.771484 0.418033H0.773755V0.416016H15.1488ZM7.09903 16.0544H12.9337V9.61736H15.1982V16.0544V18.0627V18.0639H12.9337V18.0627H7.09903V18.0639H4.83455V7.52748H2.98921V18.0639H0.772407V7.52748H0.769531V5.01305H0.772407V5.01221H2.98921V5.01305H4.83455V5.01288H7.09903V5.01422V7.02258V16.0544Z" fill="white"></path></svg>