<svg width="31" height="32" viewBox="0 0 31 32" fill="none" xmlns="http://www.w3.org/2000/svg">
<path fill-rule="evenodd" clip-rule="evenodd" d="M27.8 0.730469V3.70303L30.7906 3.64322V5.0498L26.7803 9.06013H23.7302L21.7055 11.0848C21.3144 10.6314 20.8897 10.2068 20.4363 9.81558L22.461 7.79088V4.7408L26.4713 0.730469H27.8ZM21.7055 11.0848L18.1305 14.6599C19.0857 15.8843 19.6545 17.4239 19.6545 19.0933C19.6545 23.0781 16.4126 26.32 12.4278 26.32C8.44304 26.32 5.20114 23.0781 5.20114 19.0933C5.20114 15.1085 8.44304 11.8666 12.4278 11.8666C14.0972 11.8666 15.6368 12.4354 16.8612 13.3906L20.4363 9.81558C18.2866 7.95657 15.4861 6.83147 12.4278 6.83147C5.66649 6.83147 0.166016 12.3319 0.166016 19.0933C0.166016 25.8546 5.66649 31.3551 12.4278 31.3551C19.1892 31.3551 24.6896 25.8546 24.6896 19.0933C24.6896 16.035 23.5646 13.2345 21.7055 11.0848ZM16.8493 15.9411L14.6535 18.1369C14.7803 18.4306 14.8503 18.7541 14.8503 19.0933C14.8503 20.4289 13.7635 21.5157 12.4278 21.5157C11.0922 21.5157 10.0054 20.4289 10.0054 19.0933C10.0054 17.7576 11.0922 16.6708 12.4278 16.6708C12.767 16.6708 13.0906 16.7408 13.3843 16.8676L15.58 14.6719C14.6906 14.0354 13.602 13.661 12.4278 13.661C9.43236 13.661 6.99555 16.0978 6.99555 19.0933C6.99555 22.0888 9.43236 24.5256 12.4278 24.5256C15.4233 24.5256 17.8601 22.0888 17.8601 19.0933C17.8601 17.9191 17.4857 16.8305 16.8493 15.9411Z" fill="white"/>
</svg>
