<svg width="23" height="29" viewBox="0 0 23 29" fill="none" xmlns="http://www.w3.org/2000/svg">
<path d="M21.4767 5.11674L12.1719 0.464338C11.9566 0.356777 11.7193 0.300781 11.4787 0.300781C11.238 0.300781 11.0007 0.356777 10.7855 0.464338L1.48065 5.11674C1.22286 5.24556 1.00606 5.44366 0.854576 5.68883C0.703095 5.93399 0.622924 6.21652 0.623058 6.5047V16.9292C0.620834 18.2726 0.951194 19.5957 1.58466 20.7803C2.21813 21.965 3.13501 22.9744 4.25348 23.7186L10.6118 27.9616C10.8666 28.1316 11.1661 28.2223 11.4725 28.2223C11.7788 28.2223 12.0783 28.1316 12.3331 27.9616L18.6914 23.7186C19.8122 22.9759 20.7315 21.967 21.3672 20.7823C22.0029 19.5975 22.3351 18.2737 22.3343 16.9292V6.5047C22.3344 6.21652 22.2542 5.93399 22.1027 5.68883C21.9513 5.44366 21.7345 5.24556 21.4767 5.11674ZM16.7762 11.9139L11.6058 17.0843C11.315 17.375 10.9206 17.5383 10.5094 17.5383C10.0982 17.5383 9.70381 17.375 9.41299 17.0843L6.82626 14.4991C6.68228 14.3549 6.5681 14.1838 6.49026 13.9954C6.41241 13.8071 6.37242 13.6053 6.37256 13.4016C6.37271 13.1978 6.41298 12.9961 6.4911 12.8079C6.56921 12.6197 6.68362 12.4487 6.82781 12.3047C7.11901 12.0139 7.5138 11.8507 7.92532 11.851C8.12909 11.8511 8.33083 11.8914 8.51903 11.9695C8.70724 12.0476 8.87821 12.1621 9.02219 12.3062L10.5094 13.795L14.5803 9.72106C14.7242 9.57698 14.8952 9.46266 15.0834 9.38465C15.2715 9.30663 15.4732 9.26644 15.6769 9.26637C15.8806 9.26629 16.0823 9.30634 16.2705 9.38423C16.4587 9.46211 16.6298 9.57631 16.7739 9.72029C16.918 9.86427 17.0323 10.0352 17.1103 10.2234C17.1883 10.4116 17.2285 10.6132 17.2286 10.8169C17.2286 11.0206 17.1886 11.2223 17.1107 11.4106C17.0328 11.5988 16.9186 11.7698 16.7746 11.9139H16.7762Z" fill="white"/>
</svg>
