<svg width="21" height="25" viewBox="0 0 21 25" fill="none" xmlns="http://www.w3.org/2000/svg">
<path d="M16.6684 0.683594H4.28853C2.04718 0.683594 0.230469 2.49704 0.230469 4.74165V23.3113C0.230469 24.0992 1.13393 24.5599 1.77152 24.0818L5.64122 21.1796H16.6684C18.9097 21.1796 20.7264 19.3661 20.7264 17.1215V4.74165C20.7264 2.5003 18.913 0.683594 16.6684 0.683594ZM9.51517 16.0214H5.32016C4.78817 16.0214 4.357 15.5902 4.357 15.0582C4.357 14.5262 4.78817 14.0951 5.32016 14.0951H9.51517C10.0472 14.0951 10.4783 14.5262 10.4783 15.0582C10.4783 15.5902 10.0472 16.0214 9.51517 16.0214ZM15.6368 11.8949H5.32016C4.78817 11.8949 4.357 11.4635 4.357 10.9317C4.357 10.3997 4.78817 9.96855 5.32016 9.96855H15.6368C16.1685 9.96855 16.5999 10.3997 16.5999 10.9317C16.5999 11.4635 16.1687 11.8949 15.6368 11.8949ZM15.6368 7.76808H5.32016C4.78817 7.76808 4.357 7.33692 4.357 6.80492C4.357 6.27318 4.78817 5.84176 5.32016 5.84176H15.6368C16.1685 5.84176 16.5999 6.27318 16.5999 6.80492C16.5999 7.33692 16.1687 7.76808 15.6368 7.76808Z" fill="white"/>
</svg>
