<svg width="24" height="25" viewBox="0 0 24 25" fill="none" xmlns="http://www.w3.org/2000/svg">
<path fill-rule="evenodd" clip-rule="evenodd" d="M20.8115 0.908062H11.9403C10.9354 0.908062 9.93046 0.907587 8.92566 0.907111C6.91644 0.90616 4.90772 0.90521 2.90054 0.908062C2.54286 0.901719 2.18747 0.96624 1.85485 1.0979C1.52223 1.22957 1.21897 1.42577 0.962538 1.6752C0.706107 1.92463 0.501569 2.22235 0.36075 2.5512C0.219931 2.88005 0.145612 3.23352 0.142053 3.59124C0.123224 5.43308 0.120656 7.27578 0.142053 9.11763C0.142209 9.5742 0.261199 10.0229 0.48735 10.4195C0.7135 10.8161 1.03901 11.147 1.43185 11.3797C2.11046 11.7435 2.88576 11.8862 3.64943 11.788C3.77814 11.7852 3.77078 11.7052 3.7638 11.6293C3.76224 11.6124 3.76069 11.5956 3.76069 11.58C3.76283 10.8953 3.76284 10.2106 3.76284 9.52588C3.76284 8.84118 3.76284 8.15648 3.76498 7.47178C3.76498 7.33056 3.74185 7.26808 3.5818 7.23042C3.3562 7.18719 3.15581 7.05905 3.02189 6.87242C2.88796 6.68579 2.83073 6.4549 2.86201 6.22734C2.89443 6.00031 3.01078 5.79367 3.18808 5.64822C3.36538 5.50277 3.59077 5.42906 3.81975 5.44164H5.18059H19.9813C20.219 5.41786 20.4568 5.48631 20.6456 5.63285C20.8343 5.77938 20.9596 5.99281 20.9955 6.22905C21.027 6.46141 20.9662 6.69688 20.8263 6.88501C20.6863 7.07314 20.4782 7.19897 20.2466 7.23555C20.0841 7.27383 20.0892 7.35845 20.0947 7.45028C20.0958 7.46727 20.0968 7.4845 20.0968 7.50173C20.0968 7.89195 20.0961 8.28226 20.0955 8.67264C20.0941 9.45358 20.0928 10.2348 20.0968 11.016C20.0971 11.0888 20.0877 11.1686 20.0783 11.2487C20.0552 11.4451 20.0319 11.6433 20.1499 11.746C20.2515 11.8353 20.4485 11.8187 20.6419 11.8024C20.7172 11.796 20.7919 11.7897 20.8602 11.7897C21.2417 11.8086 21.6229 11.7473 21.9792 11.6097C22.3356 11.4721 22.659 11.2612 22.9287 10.9907C23.1984 10.7202 23.4083 10.3962 23.5448 10.0395C23.6814 9.68274 23.7415 9.30135 23.7214 8.91992V3.81804C23.7466 3.42938 23.6886 3.03982 23.5512 2.67536C23.4139 2.3109 23.2004 1.97993 22.925 1.70452C22.6496 1.42912 22.3186 1.21562 21.9541 1.07828C21.5897 0.940939 21.2001 0.882907 20.8115 0.908062ZM18.2713 21.5912V14.7048C18.2713 14.2023 18.2711 13.6999 18.271 13.1976C18.2704 11.3188 18.2698 9.44104 18.2772 7.56164C18.2781 7.31771 18.2285 7.24924 17.9717 7.24924C13.9382 7.25951 9.90449 7.25951 5.87046 7.24924C5.60771 7.24838 5.56834 7.32798 5.56834 7.56506C5.57176 12.2387 5.57348 16.9149 5.57348 21.5937C5.5506 21.9798 5.6097 22.3663 5.74694 22.7278C5.88418 23.0893 6.09642 23.4177 6.3697 23.6913C6.64298 23.9649 6.97111 24.1775 7.33249 24.3152C7.69386 24.4529 8.08029 24.5124 8.46635 24.49H15.3818C15.768 24.5128 16.1547 24.4534 16.5162 24.3156C16.8777 24.1779 17.2059 23.9649 17.479 23.6909C17.7521 23.4169 17.964 23.0881 18.1005 22.7261C18.2371 22.3641 18.2953 21.9773 18.2713 21.5912ZM10.7863 15.7285C10.8608 15.804 10.9369 15.8811 11.0151 15.9604V15.9595C11.0151 15.5299 11.0148 15.1082 11.0144 14.6921C11.0135 13.7139 11.0126 12.7668 11.0168 11.8205C11.013 11.697 11.0344 11.574 11.0797 11.4591C11.1251 11.3442 11.1933 11.2397 11.2804 11.1521C11.3675 11.0645 11.4716 10.9956 11.5862 10.9495C11.7009 10.9035 11.8237 10.8814 11.9472 10.8845C12.0707 10.8876 12.1923 10.9158 12.3045 10.9675C12.4167 11.0192 12.5172 11.0932 12.5998 11.1851C12.6824 11.277 12.7453 11.3847 12.7849 11.5018C12.8244 11.6188 12.8396 11.7427 12.8296 11.8658V15.6069C12.8117 15.7145 12.8282 15.825 12.8767 15.9227C12.9949 15.8028 13.1116 15.6837 13.2275 15.5653C13.484 15.3032 13.7368 15.045 13.9944 14.7921C14.1137 14.6731 14.2638 14.5899 14.4279 14.5518C14.5919 14.5137 14.7633 14.5223 14.9228 14.5765C15.0822 14.6307 15.2234 14.7284 15.3302 14.8586C15.437 14.9888 15.5053 15.1463 15.5273 15.3133C15.5499 15.4495 15.539 15.589 15.4954 15.72C15.4519 15.8509 15.377 15.9693 15.2774 16.0648C15.1892 16.1535 15.101 16.2422 15.0128 16.3309C14.1948 17.1537 13.3772 17.9763 12.5497 18.789C12.4672 18.875 12.368 18.9433 12.2581 18.9894C12.1482 19.0356 12.03 19.0588 11.9109 19.0575C11.7917 19.0562 11.674 19.0305 11.5651 18.982C11.4563 18.9334 11.3585 18.8631 11.2779 18.7753C10.3707 17.8789 9.46886 16.9771 8.57247 16.0699C8.48627 15.9859 8.41773 15.8856 8.37083 15.7747C8.32393 15.6639 8.29963 15.5448 8.29937 15.4245C8.29911 15.3041 8.32287 15.185 8.36929 15.0739C8.41571 14.9629 8.48384 14.8623 8.56968 14.7779C8.65551 14.6936 8.75731 14.6272 8.86913 14.5827C8.98096 14.5383 9.10054 14.5166 9.22086 14.5189C9.34118 14.5213 9.45981 14.5476 9.56981 14.5964C9.67981 14.6453 9.77897 14.7156 9.86143 14.8032C10.1634 15.0968 10.4586 15.3962 10.7863 15.7285Z" fill="white"/>
</svg>
