<svg width="25" height="26" viewBox="0 0 25 26" fill="none" xmlns="http://www.w3.org/2000/svg">
<path fill-rule="evenodd" clip-rule="evenodd" d="M0.300781 12.9166C0.300781 6.18182 5.77947 0.703125 12.5143 0.703125C19.249 0.703125 24.7277 6.18182 24.7277 12.9166C24.7277 19.6514 19.249 25.1301 12.5143 25.1301C5.77947 25.1301 0.300781 19.6514 0.300781 12.9166ZM13.5319 13.9343H17.8576C18.4195 13.9343 18.8753 13.4784 18.8753 12.9165C18.8753 12.3547 18.4195 11.8988 17.8576 11.8988H13.5319V7.57315C13.5319 7.01126 13.0761 6.55542 12.5142 6.55542C11.9523 6.55542 11.4965 7.01126 11.4965 7.57315V11.8988H7.1708C6.60892 11.8988 6.15308 12.3547 6.15308 12.9165C6.15308 13.4784 6.60892 13.9343 7.1708 13.9343H11.4965V18.2599C11.4965 18.8218 11.9523 19.2777 12.5142 19.2777C13.0761 19.2777 13.5319 18.8218 13.5319 18.2599V13.9343Z" fill="white"/>
</svg>
