<svg width="24" height="26" viewBox="0 0 24 26" fill="none" xmlns="http://www.w3.org/2000/svg">
<path d="M11.8621 25.5666C8.54855 25.5666 5.23371 25.5666 1.92018 25.5666C1.62819 25.5666 1.33751 25.5575 1.04813 25.4962C0.387245 25.3541 0.00792252 24.8927 0.0157436 24.2135C0.0209577 23.6895 0.151309 23.1851 0.27775 22.6819C0.827834 20.492 1.85761 18.5576 3.39837 16.906C4.59499 15.6234 5.99627 14.6275 7.62827 13.9614C7.83814 13.8754 7.97761 13.9027 8.16011 14.0018C9.16121 14.548 10.2353 14.8582 11.3746 14.9325C12.9258 15.0342 14.3687 14.677 15.7218 13.9262C15.8156 13.8741 15.8978 13.8728 15.9968 13.9132C17.827 14.6549 19.386 15.7785 20.6725 17.2723C22.0751 18.9004 23.0124 20.7697 23.5077 22.8605C23.5924 23.219 23.6719 23.5774 23.7136 23.9437C23.7384 24.1614 23.7293 24.3765 23.6837 24.589C23.5716 25.1025 23.1649 25.4349 22.5483 25.5236C22.3111 25.5575 22.0738 25.5653 21.8353 25.5653C18.51 25.5653 15.1847 25.5653 11.8608 25.5653L11.8621 25.5666Z" fill="white"/>
<path d="M5.60873 6.9144C5.63088 3.58783 8.28745 0.718792 11.8643 0.70706C15.2456 0.696632 18.0625 3.50962 18.0821 6.87269C18.1016 10.3596 15.3199 13.1674 11.8604 13.1752C8.40346 13.183 5.61003 10.3791 5.60742 6.9144H5.60873Z" fill="white"/>
</svg>
