<svg width="27" height="26" viewBox="0 0 27 26" fill="none" xmlns="http://www.w3.org/2000/svg">
<mask id="mask0_590_67" style="mask-type:luminance" maskUnits="userSpaceOnUse" x="0" y="0" width="27" height="26">
<path d="M26.9134 0.925781H0.113281V25.7852H26.9134V0.925781Z" fill="white"/>
</mask>
<g mask="url(#mask0_590_67)">
<path d="M5.84506 14.377C5.84506 15.8719 5.84506 17.3676 5.84506 18.8625C5.84506 19.716 5.50754 20.0403 4.64331 20.05C4.04672 20.0875 3.44788 20.0351 2.86688 19.8946C2.08643 19.6624 1.40021 19.1877 0.907688 18.5393C0.415165 17.8909 0.14194 17.1025 0.127621 16.2884C0.109857 14.973 0.107192 13.6566 0.127621 12.3412C0.143493 11.3529 0.541891 10.4093 1.23907 9.70859C1.93625 9.00794 2.87791 8.60484 3.86612 8.58405C5.72338 8.53609 5.84595 8.65333 5.84595 10.4884C5.84595 11.784 5.84595 13.0799 5.84595 14.3761" fill="white"/>
<path d="M21.1802 14.3138C21.1802 12.7985 21.1802 11.2832 21.1802 9.76875C21.1802 8.91517 21.5186 8.59098 22.3829 8.58209C22.9795 8.54453 23.5783 8.59693 24.1593 8.73753C24.9388 8.97044 25.6239 9.44533 26.1156 10.0935C26.6072 10.7416 26.8799 11.5294 26.8941 12.3428C26.9119 13.6583 26.9145 14.9746 26.8941 16.29C26.878 17.2783 26.4794 18.2219 25.782 18.9224C25.0847 19.6229 24.143 20.0257 23.1547 20.0463C21.2895 20.0934 21.1758 19.9806 21.1758 18.1411C21.1758 16.865 21.1758 15.5892 21.1758 14.3138" fill="white"/>
<path d="M3.16797 7.6064C4.10504 4.16278 8.99023 0.963433 13.3602 0.926128C17.9079 0.887935 22.8286 4.01179 23.8625 7.60551C23.2647 7.60551 22.6696 7.58597 22.0772 7.6135C21.7512 7.6286 21.6899 7.38434 21.5629 7.19959C20.6973 5.86852 19.5147 4.77314 18.1214 4.01171C16.7281 3.25028 15.1675 2.84662 13.5797 2.83694C11.992 2.82726 10.4266 3.21185 9.0241 3.95623C7.62159 4.7006 6.42578 5.78147 5.54395 7.10189C5.28814 7.47316 5.05454 7.68012 4.598 7.61173C4.35981 7.59244 4.12054 7.59066 3.88209 7.6064H3.17153" fill="white"/>
<path d="M22.8758 21.054C22.686 21.8431 22.2407 22.5473 21.6092 23.057C20.9777 23.5667 20.1955 23.8534 19.3842 23.8724C18.8513 23.8884 18.3077 23.8946 17.7712 23.8724C17.5998 23.8431 17.4236 23.8733 17.2717 23.9579C17.1198 24.0426 17.0015 24.1766 16.9363 24.3378C16.635 24.8947 16.1525 25.3319 15.5686 25.5768C14.9847 25.8217 14.3347 25.8597 13.7263 25.6843C13.1188 25.5234 12.5817 25.1661 12.1984 24.6681C11.8152 24.17 11.6074 23.5593 11.6074 22.9309C11.6074 22.3025 11.8152 21.6917 12.1984 21.1937C12.5817 20.6957 13.1188 20.3383 13.7263 20.1774C14.3346 20.0017 14.9848 20.0392 15.569 20.2834C16.1532 20.5276 16.6365 20.964 16.9389 21.5204C17.0025 21.6824 17.12 21.8176 17.2716 21.903C17.4232 21.9885 17.5997 22.019 17.7712 21.9894C18.2082 21.9636 18.6479 21.9716 19.0857 21.9894C19.4456 22.0203 19.8069 21.9489 20.1278 21.7832C20.4488 21.6175 20.7163 21.3644 20.8995 21.0532C21.046 20.8151 21.166 20.7592 21.4147 20.888C21.8905 21.0232 22.3851 21.0805 22.8793 21.0576" fill="white"/>
</g>
</svg>
