<svg width="25" height="25" viewBox="0 0 25 25" fill="none" xmlns="http://www.w3.org/2000/svg">
<path fill-rule="evenodd" clip-rule="evenodd" d="M12.5143 0.361328C19.2596 0.361328 24.7277 5.82948 24.7277 12.5748C24.7277 19.3201 19.2596 24.7883 12.5143 24.7883C5.76893 24.7883 0.300781 19.3201 0.300781 12.5748C0.300781 5.82948 5.76893 0.361328 12.5143 0.361328ZM13.4508 11.3034V5.40053C13.4508 4.88356 13.0314 4.46429 12.5143 4.46429C11.9972 4.46429 11.578 4.88356 11.578 5.40053V11.3034C11.578 11.8204 11.9973 12.2396 12.5143 12.2396C13.0314 12.2397 13.4508 11.8204 13.4508 11.3034ZM20.6248 12.5748C20.6248 9.70039 19.0951 7.03317 16.6186 5.57858C16.3183 5.40206 15.9708 5.40024 15.6684 5.57319C15.3402 5.76135 15.1916 6.06211 15.1916 6.43457C15.1916 6.77803 15.3611 7.07487 15.6571 7.24977C17.5365 8.36091 18.6969 10.3898 18.6969 12.5748C18.6969 15.9839 15.9233 18.7572 12.5143 18.7572C9.10564 18.7572 6.33199 15.9839 6.33199 12.5748C6.33199 10.3895 7.49246 8.36091 9.37186 7.24977C9.69337 7.05965 9.83716 6.76324 9.83716 6.3954C9.83716 6.04713 9.66255 5.74656 9.36036 5.57347C9.05813 5.40024 8.71066 5.40249 8.41019 5.57853C5.93367 7.03346 4.40374 9.7001 4.40374 12.5748C4.40374 14.7397 5.24867 16.7793 6.77965 18.3098C8.31005 19.8404 10.3498 20.6853 12.5143 20.6853C14.6791 20.6853 16.7187 19.8404 18.2493 18.3098C19.7798 16.7793 20.6248 14.7397 20.6248 12.5748Z" fill="white"/>
</svg>
