<svg width="59" height="59" viewBox="0 0 59 59" fill="none" xmlns="http://www.w3.org/2000/svg">
<circle cx="29.3753" cy="29.8889" r="28.9202" fill="#5386E4"/>
<path fill-rule="evenodd" clip-rule="evenodd" d="M29.3654 13.9336C25.0816 13.9477 21.9 17.3837 21.8735 21.3678H21.8719C21.875 25.5173 25.2205 28.8753 29.3607 28.8659C33.504 28.8566 36.8354 25.4939 36.812 21.3178C36.7886 17.2901 33.415 13.9211 29.3654 13.9336ZM17.4567 43.7061H29.3636L29.362 43.7046H41.3078C41.5935 43.7046 41.8777 43.6952 42.1618 43.6546C42.9002 43.5485 43.3873 43.1504 43.5215 42.5353C43.5762 42.2808 43.5871 42.0232 43.5575 41.7625C43.5075 41.3238 43.4123 40.8945 43.3108 40.4652C42.7176 37.9611 41.5951 35.7225 39.9153 33.7726C38.3745 31.9835 36.5073 30.6378 34.3155 29.7495C34.1969 29.7012 34.0985 29.7027 33.9861 29.7652C32.3656 30.6644 30.6375 31.0921 28.7797 30.9704C27.4153 30.8814 26.1289 30.5098 24.9299 29.8557C24.7114 29.7371 24.5443 29.7043 24.293 29.8073C22.3384 30.6051 20.6602 31.7978 19.2271 33.3339C17.3818 35.3119 16.1485 37.6286 15.4897 40.2513L15.4775 40.2998C15.33 40.8864 15.182 41.4749 15.1759 42.0857C15.1666 42.899 15.6208 43.4517 16.4123 43.6218C16.7589 43.6952 17.1071 43.7061 17.4567 43.7061Z" fill="white"/>
</svg>
