<svg width="50" height="59" viewBox="0 0 50 59" fill="none" xmlns="http://www.w3.org/2000/svg">
<path d="M47.6021 41.7293C43.9582 38.6493 41.8687 34.1474 41.8687 29.378V22.6589C41.8687 14.178 35.5689 7.15767 27.4086 5.98158V3.37876C27.4086 2.04603 26.3289 0.96875 24.9986 0.96875C23.6683 0.96875 22.5886 2.04603 22.5886 3.37876V5.98158C14.4259 7.15767 8.12848 14.178 8.12848 22.6589V29.378C8.12848 34.1474 6.039 38.6493 2.37337 41.7486C1.43587 42.5511 0.898438 43.7176 0.898438 44.9515C0.898438 47.2772 2.7903 49.169 5.11596 49.169H44.8812C47.2069 49.169 49.0987 47.2772 49.0987 44.9515C49.0987 43.7176 48.5613 42.5511 47.6021 41.7293Z" fill="#5386E4"/>
<path d="M24.9989 58.8082C29.3635 58.8082 33.0146 55.6968 33.8533 51.5781H16.1445C16.9832 55.6968 20.6344 58.8082 24.9989 58.8082Z" fill="#5386E4"/>
</svg>
