<svg width="26" height="37" viewBox="0 0 26 37" fill="none" xmlns="http://www.w3.org/2000/svg">
<path d="M12.9098 23.4877C19.5214 23.4877 25.0609 18.3057 25.0609 11.8728C25.0609 5.43987 19.7001 0.257812 12.9098 0.257812C6.29825 0.257812 0.9375 5.43987 0.9375 11.8728C0.9375 18.3057 6.29825 23.4877 12.9098 23.4877Z" fill="white"/>
<path d="M19.7005 24.5591C20.2366 24.2017 20.9514 24.7378 20.9514 25.2738V34.0297C20.9514 35.638 19.8792 36.3527 18.4497 35.8166L13.625 33.4937C13.2676 33.315 12.5529 33.315 12.1955 33.4937L7.37082 35.8166C5.94129 36.5314 4.86914 35.638 4.86914 34.0297V25.4525C4.86914 24.7378 5.58391 24.3804 6.11998 24.7378C8.08559 25.8099 10.4086 26.346 12.9103 26.346C15.4119 26.346 17.5562 25.6312 19.7005 24.5591Z" fill="white"/>
</svg>
