<svg width="40" height="39" viewBox="0 0 40 39" fill="none" xmlns="http://www.w3.org/2000/svg">
<path d="M19.6698 38.8357C14.5251 38.8357 9.59102 36.792 5.95312 33.1541C2.31523 29.5162 0.271484 24.5822 0.271484 19.4374C0.271484 14.2926 2.31523 9.35859 5.95312 5.7207C9.59102 2.08281 14.5251 0.0390625 19.6698 0.0390625C22.2172 0.0390625 24.7397 0.540815 27.0932 1.51567C29.4468 2.49053 31.5852 3.9194 33.3865 5.7207C35.1878 7.522 36.6167 9.66046 37.5915 12.014C38.5664 14.3675 39.0681 16.89 39.0681 19.4374C39.0681 21.9848 38.5664 24.5073 37.5915 26.8608C36.6167 29.2143 35.1878 31.3528 33.3865 33.1541C31.5852 34.9554 29.4468 36.3843 27.0932 37.3591C24.7397 38.334 22.2172 38.8357 19.6698 38.8357Z" fill="#1FD689"/>
<path d="M17.511 27.1352C17.2043 27.1357 16.9005 27.0755 16.6171 26.9582C16.3336 26.8409 16.0762 26.6687 15.8596 26.4515L9.45338 20.0458C9.02066 19.6067 8.77907 19.0144 8.78126 18.398C8.78346 17.7815 9.02927 17.191 9.4651 16.755C9.90094 16.3191 10.4914 16.0731 11.1079 16.0708C11.7243 16.0684 12.3167 16.3098 12.7558 16.7424L17.5106 21.4968L26.583 12.4244C27.021 11.9863 27.6151 11.7402 28.2346 11.7402C28.8541 11.7402 29.4482 11.9863 29.8863 12.4244C30.3243 12.8624 30.5704 13.4565 30.5704 14.076C30.5704 14.6955 30.3243 15.2896 29.8863 15.7277L19.1625 26.4515C18.9458 26.6687 18.6884 26.8409 18.405 26.9582C18.1216 27.0755 17.8178 27.1357 17.511 27.1352Z" fill="#FFFCEE"/>
</svg>
