<svg width="20" height="20" viewBox="0 0 20 20" fill="none" xmlns="http://www.w3.org/2000/svg">
<path fill-rule="evenodd" clip-rule="evenodd" d="M3.39584 16.5556C5.14935 18.3091 7.52762 19.2942 10.0075 19.2942C11.2353 19.2942 12.4512 19.0524 13.5856 18.5825C14.7201 18.1126 15.7508 17.4238 16.6191 16.5556C17.4873 15.6873 18.176 14.6566 18.6459 13.5222C19.1158 12.3877 19.3577 11.1719 19.3577 9.94398C19.3577 8.71609 19.1158 7.50022 18.6459 6.3658C18.176 5.23138 17.4873 4.20062 16.6191 3.33237C15.7508 2.46412 14.7201 1.77539 13.5856 1.30549C12.4512 0.835601 11.2353 0.59375 10.0075 0.59375C7.52762 0.59375 5.14935 1.57886 3.39584 3.33237C1.64234 5.08588 0.657227 7.46414 0.657227 9.94398C0.657227 12.4238 1.64234 14.8021 3.39584 16.5556ZM8.53599 13.5691C8.6726 13.6256 8.81903 13.6546 8.96689 13.6544C9.11474 13.6546 9.26118 13.6256 9.39778 13.5691C9.53439 13.5125 9.65848 13.4295 9.7629 13.3249L14.9319 8.15586C15.1431 7.94471 15.2617 7.65834 15.2617 7.35974C15.2617 7.06114 15.1431 6.77476 14.9319 6.56362C14.7208 6.35247 14.4344 6.23385 14.1358 6.23385C13.8372 6.23385 13.5508 6.35247 13.3397 6.56362L8.96668 10.9366L6.67483 8.64498C6.46316 8.43646 6.17763 8.32008 5.8805 8.32122C5.58337 8.32235 5.29874 8.44091 5.08866 8.65104C4.87858 8.86117 4.7601 9.14584 4.75904 9.44297C4.75798 9.7401 4.87444 10.0256 5.08301 10.2372L8.17087 13.3249C8.2753 13.4295 8.39938 13.5125 8.53599 13.5691Z" fill="#89ABEA"/>
</svg>
