<svg width="24" height="27" viewBox="0 0 24 27" fill="none" xmlns="http://www.w3.org/2000/svg">
<g clip-path="url(#clip0_887_48)">
<path d="M18.4873 15.5426C18.4873 18.0487 18.4873 20.5548 18.4873 23.0581C18.4873 24.9527 16.9774 26.3723 14.9602 26.375C11.1752 26.375 7.38725 26.375 3.60222 26.375C1.61117 26.375 0.0954189 24.9472 0.0954189 23.08C0.0954189 18.0678 0.0954189 13.0583 0.0954189 8.04615C0.0954189 6.12153 1.59088 4.71561 3.637 4.71561C7.41044 4.71561 11.1839 4.71561 14.9602 4.71561C16.9687 4.71561 18.4873 6.14064 18.4873 8.02704C18.4873 10.5331 18.4873 13.0392 18.4873 15.5426Z" fill="#89ABEA"/>
<path d="M20.797 14.6235C20.797 12.4451 20.7999 10.2666 20.797 8.08806C20.7912 5.5847 19.3016 3.61368 16.7946 2.79196C16.1657 2.58722 15.5079 2.53808 14.8471 2.53808C11.6591 2.53808 8.47396 2.53808 5.28595 2.53808C4.86572 2.53808 4.85122 2.5217 5.0483 2.18318C5.71778 1.02569 6.75533 0.395071 8.15806 0.386883C10.8534 0.367773 13.5487 0.375961 16.2469 0.38142C19.7015 0.38961 22.6258 2.85475 23.0344 6.09247C23.0721 6.39549 23.0924 6.69852 23.0924 7.00427C23.0924 10.9327 23.104 14.8583 23.0837 18.7867C23.0779 20.1189 22.3997 21.1017 21.1332 21.7187C20.8811 21.8415 20.7941 21.8333 20.7941 21.5303C20.8057 19.229 20.7999 16.9249 20.7999 14.6235H20.797Z" fill="#89ABEA"/>
</g>
<defs>
<clipPath id="clip0_887_48">
<rect width="23" height="26" fill="white" transform="matrix(-1 0 0 -1 23.0923 26.375)"/>
</clipPath>
</defs>
</svg>
