<svg width="40" height="40" viewBox="0 0 40 40" fill="none" xmlns="http://www.w3.org/2000/svg">
<path d="M33.8614 6.10357C30.1975 2.43969 25.3261 0.421875 20.1447 0.421875C14.9631 0.421875 10.0917 2.43969 6.42779 6.10357C2.76399 9.76745 0.74617 14.6388 0.746094 19.8203C0.74617 25.0019 2.76399 29.8733 6.42779 33.5371C10.0916 37.201 14.963 39.2188 20.1445 39.2188C25.326 39.2188 30.1975 37.2009 33.8614 33.5371C37.5252 29.8733 39.543 25.0019 39.543 19.8203C39.5431 14.6388 37.5253 9.76745 33.8614 6.10357Z" fill="#F73A7C"/>
<path d="M25.2013 19.8182L28.7017 16.3177C29.3763 15.6433 29.7479 14.7464 29.7479 13.7923C29.7479 12.8382 29.3765 11.9413 28.7019 11.2668C28.0272 10.5922 27.1304 10.2207 26.1764 10.2207C25.2223 10.2207 24.3255 10.5922 23.6511 11.2668L20.1505 14.7675L16.6498 11.2668C15.9752 10.5922 15.0783 10.2207 14.1243 10.2207C13.1703 10.2207 12.2734 10.5922 11.5987 11.2668C10.9243 11.9413 10.5527 12.8383 10.5527 13.7923C10.5528 14.7464 10.9243 15.6432 11.5989 16.3174L15.0997 19.8182L11.5987 23.319C10.2064 24.7118 10.2064 26.9776 11.5988 28.3699C12.2734 29.0445 13.1702 29.416 14.1242 29.416C15.0784 29.416 15.9755 29.0443 16.6497 28.3696L20.1503 24.869L23.6511 28.3698C24.3255 29.0445 25.2224 29.416 26.1765 29.416C27.1305 29.416 28.0274 29.0445 28.7018 28.37C30.0945 26.9775 30.0946 24.7116 28.702 23.3189L25.2013 19.8182Z" fill="#E7F0EF"/>
</svg>
