<svg width="34" height="34" viewBox="0 0 34 34" fill="none" xmlns="http://www.w3.org/2000/svg">
<path d="M33.774 17.0508C33.7752 26.2046 26.3287 33.5924 17.3141 33.7171C7.95309 33.8468 0.422569 26.3128 0.34006 17.1759C0.255633 7.82749 7.76582 0.366807 16.8801 0.278159C26.3122 0.18644 33.8358 7.84782 33.774 17.0508ZM14.7648 20.4033C14.7648 22.3405 14.7648 24.2774 14.7648 26.2146C14.7648 26.4003 14.7848 26.5834 14.8278 26.7653C15.0979 27.9089 16.1728 28.6572 17.3556 28.5202C18.4689 28.3913 19.3481 27.3954 19.3488 26.2533C19.3515 22.3662 19.3523 18.4795 19.3515 14.5924C19.3515 13.3486 18.4497 12.3574 17.2125 12.2607C15.9883 12.1651 14.7591 13.1395 14.7633 14.6108C14.7687 16.5415 14.7644 18.4722 14.7644 20.4029L14.7648 20.4033ZM17.0474 6.40258C15.9088 6.38416 14.9529 7.32553 14.9298 8.48794C14.9076 9.60276 15.867 10.5998 16.9573 10.6408C18.12 10.6842 19.1497 9.77238 19.1831 8.58042C19.2184 7.32246 18.1653 6.35385 17.0474 6.40297V6.40258Z" fill="#5386E4"/>
</svg>
