<svg width="237" height="39" viewBox="0 0 237 39" fill="none" xmlns="http://www.w3.org/2000/svg">
<path fill-rule="evenodd" clip-rule="evenodd" d="M34.4932 0.416016H34.4935H34.6104V15.7476H30.2803H29.2315H24.83V29.5403H19.7576V10.2675H24.83V10.2747H29.2315V10.2737C29.2311 8.80787 29.2307 7.34245 29.2307 5.87667H0.274051L0.273329 5.76605H0.26828L0.234375 0.420339H0.239785V0.416016H34.4932ZM29.2196 33.9412H15.3165V14.579V10.2736V10.2707H9.92063V10.2711H5.52349V10.2693H0.241228V10.2711H0.234375V15.6615H0.241228V38.2492H5.52349V15.6615H9.92063V38.2492H15.3165V38.2467H29.2196V38.2492H34.6154V38.2467V33.9412V20.1417H29.2196V33.9412ZM53.8494 27.3323L49.8894 17.4543V27.3323H45.8414V11.2723H51.4074L56.0054 22.6903V11.2723H60.0534V27.3323H53.8494ZM61.6943 11.6683H65.9623V14.7703H61.6943V11.6683ZM61.6943 15.6283H65.9623V27.3323H61.6943V15.6283ZM76.7371 23.4163V27.3323H73.8771C73.0558 27.3323 72.3005 27.1416 71.6111 26.7603C70.9365 26.379 70.3938 25.8583 69.9831 25.1983C69.5871 24.5383 69.3891 23.7976 69.3891 22.9763V19.5883H66.9691V15.6283H69.3891V12.1523H73.6571V15.6283H76.5171V19.5443H73.6571V22.9763C73.6571 23.1083 73.7011 23.2183 73.7891 23.3063C73.8771 23.3796 73.9945 23.4163 74.1411 23.4163H76.7371ZM85.8523 15.6283V19.5443H83.7183C83.3517 19.5443 83.0144 19.691 82.7064 19.9843C82.413 20.2776 82.2663 20.615 82.2663 20.9963V27.3323H77.9984V15.6283H81.5183V17.4323C82.4277 16.2296 83.601 15.6283 85.0383 15.6283H85.8523ZM93.2299 27.6623C92.0566 27.6623 90.9712 27.3836 89.9739 26.8263C88.9766 26.269 88.1846 25.521 87.5979 24.5823C87.0259 23.629 86.7399 22.5876 86.7399 21.4583C86.7399 20.3436 87.0259 19.317 87.5979 18.3783C88.1846 17.425 88.9766 16.677 89.9739 16.1343C90.9712 15.577 92.0566 15.2983 93.2299 15.2983C94.4032 15.2983 95.4812 15.577 96.4639 16.1343C97.4466 16.677 98.2239 17.425 98.7959 18.3783C99.3826 19.317 99.6759 20.3436 99.6759 21.4583C99.6759 22.5876 99.3826 23.629 98.7959 24.5823C98.2239 25.521 97.4466 26.269 96.4639 26.8263C95.4812 27.3836 94.4032 27.6623 93.2299 27.6623ZM93.2079 23.6803C93.8239 23.6803 94.3446 23.4676 94.7699 23.0423C95.1952 22.617 95.4079 22.0963 95.4079 21.4803C95.4079 20.8643 95.1952 20.3436 94.7699 19.9183C94.3446 19.493 93.8239 19.2803 93.2079 19.2803C92.5919 19.2803 92.0712 19.493 91.6459 19.9183C91.2206 20.3436 91.0079 20.8643 91.0079 21.4803C91.0079 22.0963 91.2206 22.617 91.6459 23.0423C92.0712 23.4676 92.5919 23.6803 93.2079 23.6803ZM107.743 15.2983C108.858 15.2983 109.885 15.5843 110.823 16.1563C111.777 16.7136 112.532 17.469 113.089 18.4223C113.647 19.361 113.925 20.3876 113.925 21.5023C113.925 22.6023 113.647 23.629 113.089 24.5823C112.532 25.521 111.777 26.269 110.823 26.8263C109.885 27.3836 108.858 27.6623 107.743 27.6623C106.775 27.6623 105.947 27.4203 105.257 26.9363V31.6883H100.989V15.6283H104.509V16.7063C105.301 15.7676 106.379 15.2983 107.743 15.2983ZM107.457 23.6803C108.073 23.6803 108.594 23.4676 109.019 23.0423C109.445 22.617 109.657 22.0963 109.657 21.4803C109.657 20.8643 109.445 20.3436 109.019 19.9183C108.594 19.493 108.073 19.2803 107.457 19.2803C106.841 19.2803 106.321 19.493 105.895 19.9183C105.47 20.3436 105.257 20.8643 105.257 21.4803C105.257 22.0963 105.47 22.617 105.895 23.0423C106.321 23.4676 106.841 23.6803 107.457 23.6803ZM122.999 15.6283V19.5443H120.865C120.498 19.5443 120.161 19.691 119.853 19.9843C119.56 20.2776 119.413 20.615 119.413 20.9963V27.3323H115.145V15.6283H118.665V17.4323C119.574 16.2296 120.747 15.6283 122.185 15.6283H122.999ZM130.376 27.6623C129.203 27.6623 128.118 27.3836 127.12 26.8263C126.123 26.269 125.331 25.521 124.744 24.5823C124.172 23.629 123.886 22.5876 123.886 21.4583C123.886 20.3436 124.172 19.317 124.744 18.3783C125.331 17.425 126.123 16.677 127.12 16.1343C128.118 15.577 129.203 15.2983 130.376 15.2983C131.55 15.2983 132.628 15.577 133.61 16.1343C134.593 16.677 135.37 17.425 135.942 18.3783C136.529 19.317 136.822 20.3436 136.822 21.4583C136.822 22.5876 136.529 23.629 135.942 24.5823C135.37 25.521 134.593 26.269 133.61 26.8263C132.628 27.3836 131.55 27.6623 130.376 27.6623ZM130.354 23.6803C130.97 23.6803 131.491 23.4676 131.916 23.0423C132.342 22.617 132.554 22.0963 132.554 21.4803C132.554 20.8643 132.342 20.3436 131.916 19.9183C131.491 19.493 130.97 19.2803 130.354 19.2803C129.738 19.2803 129.218 19.493 128.792 19.9183C128.367 20.3436 128.154 20.8643 128.154 21.4803C128.154 22.0963 128.367 22.617 128.792 23.0423C129.218 23.4676 129.738 23.6803 130.354 23.6803ZM144.89 15.2983C146.004 15.2983 147.031 15.5843 147.97 16.1563C148.923 16.7136 149.678 17.469 150.236 18.4223C150.793 19.361 151.072 20.3876 151.072 21.5023C151.072 22.6023 150.793 23.629 150.236 24.5823C149.678 25.521 148.923 26.269 147.97 26.8263C147.031 27.3836 146.004 27.6623 144.89 27.6623C143.922 27.6623 143.093 27.4203 142.404 26.9363V31.6883H138.136V15.6283H141.656V16.7063C142.448 15.7676 143.526 15.2983 144.89 15.2983ZM144.604 23.6803C145.22 23.6803 145.74 23.4676 146.166 23.0423C146.591 22.617 146.804 22.0963 146.804 21.4803C146.804 20.8643 146.591 20.3436 146.166 19.9183C145.74 19.493 145.22 19.2803 144.604 19.2803C143.988 19.2803 143.467 19.493 143.042 19.9183C142.616 20.3436 142.404 20.8643 142.404 21.4803C142.404 22.0963 142.616 22.617 143.042 23.0423C143.467 23.4676 143.988 23.6803 144.604 23.6803ZM159.01 15.1883H155.138V11.2723H167.238V15.1883H163.278V27.3323H159.01V15.1883ZM176.216 15.6283V19.5443H174.082C173.715 19.5443 173.378 19.691 173.07 19.9843C172.776 20.2776 172.63 20.615 172.63 20.9963V27.3323H168.362V15.6283H171.882V17.4323C172.791 16.2296 173.964 15.6283 175.402 15.6283H176.216ZM189.481 27.3323H185.961V26.2543C185.169 27.193 184.091 27.6623 182.727 27.6623C181.612 27.6623 180.578 27.3836 179.625 26.8263C178.686 26.2543 177.938 25.499 177.381 24.5603C176.823 23.607 176.545 22.573 176.545 21.4583C176.545 20.3583 176.823 19.339 177.381 18.4003C177.938 17.447 178.686 16.6916 179.625 16.1343C180.578 15.577 181.612 15.2983 182.727 15.2983C184.091 15.2983 185.169 15.7676 185.961 16.7063V15.6283H189.481V27.3323ZM183.013 23.6803C183.629 23.6803 184.149 23.4676 184.575 23.0423C185 22.617 185.213 22.0963 185.213 21.4803C185.213 20.8643 185 20.3436 184.575 19.9183C184.149 19.493 183.629 19.2803 183.013 19.2803C182.397 19.2803 181.876 19.493 181.451 19.9183C181.025 20.3436 180.813 20.8643 180.813 21.4803C180.813 22.0963 181.025 22.617 181.451 23.0423C181.876 23.4676 182.397 23.6803 183.013 23.6803ZM203.617 10.6123V27.3323H200.097V26.2543C199.305 27.193 198.227 27.6623 196.863 27.6623C195.749 27.6623 194.715 27.3836 193.761 26.8263C192.823 26.2543 192.075 25.499 191.517 24.5603C190.96 23.607 190.681 22.573 190.681 21.4583C190.681 20.3583 190.96 19.339 191.517 18.4003C192.075 17.447 192.823 16.6916 193.761 16.1343C194.715 15.577 195.749 15.2983 196.863 15.2983C197.831 15.2983 198.66 15.5403 199.349 16.0243V10.6123H203.617ZM197.149 23.6803C197.765 23.6803 198.286 23.4676 198.711 23.0423C199.137 22.617 199.349 22.0963 199.349 21.4803C199.349 20.8643 199.137 20.3436 198.711 19.9183C198.286 19.493 197.765 19.2803 197.149 19.2803C196.533 19.2803 196.013 19.493 195.587 19.9183C195.162 20.3436 194.949 20.8643 194.949 21.4803C194.949 22.0963 195.162 22.617 195.587 23.0423C196.013 23.4676 196.533 23.6803 197.149 23.6803ZM205.274 11.6683H209.542V14.7703H205.274V11.6683ZM205.274 15.6283H209.542V27.3323H205.274V15.6283ZM217.301 15.2983C218.196 15.2983 219.002 15.5403 219.721 16.0243C220.44 16.4936 220.997 17.139 221.393 17.9603C221.804 18.767 222.009 19.6543 222.009 20.6223V27.3323H217.741V20.7543C217.741 20.4316 217.616 20.1456 217.367 19.8963C217.118 19.647 216.817 19.5223 216.465 19.5223C216.142 19.5223 215.856 19.647 215.607 19.8963C215.358 20.1456 215.233 20.4316 215.233 20.7543V27.3323H210.965V15.6283H214.485V16.5963C215.233 15.731 216.172 15.2983 217.301 15.2983ZM236.037 15.6283V26.6503C236.037 27.7063 235.781 28.6816 235.267 29.5763C234.754 30.4856 234.057 31.2043 233.177 31.7323C232.312 32.2603 231.366 32.5243 230.339 32.5243H225.741V28.4763H230.647C231.102 28.4763 231.513 28.3003 231.879 27.9483C232.246 27.5963 232.429 27.1783 232.429 26.6943V26.3643C231.652 27.2296 230.603 27.6623 229.283 27.6623C228.169 27.6623 227.135 27.3836 226.181 26.8263C225.243 26.2543 224.495 25.499 223.937 24.5603C223.38 23.607 223.101 22.573 223.101 21.4583C223.101 20.3583 223.38 19.339 223.937 18.4003C224.495 17.447 225.243 16.6916 226.181 16.1343C227.135 15.577 228.169 15.2983 229.283 15.2983C230.647 15.2983 231.725 15.7676 232.517 16.7063V15.6283H236.037ZM229.569 23.6803C230.185 23.6803 230.706 23.4676 231.131 23.0423C231.557 22.617 231.769 22.0963 231.769 21.4803C231.769 20.8643 231.557 20.3436 231.131 19.9183C230.706 19.493 230.185 19.2803 229.569 19.2803C228.953 19.2803 228.433 19.493 228.007 19.9183C227.582 20.3436 227.369 20.8643 227.369 21.4803C227.369 22.0963 227.582 22.617 228.007 23.0423C228.433 23.4676 228.953 23.6803 229.569 23.6803Z" fill="#2DA2E1"/>
</svg>
