<svg width="31" height="33" viewBox="0 0 31 33" fill="none" xmlns="http://www.w3.org/2000/svg">
<path d="M15.786 32.0259C11.5355 32.0259 7.28338 32.0259 3.03292 32.0259C2.65837 32.0259 2.2855 32.0142 1.91429 31.9356C1.06654 31.7534 0.579963 31.1615 0.589996 30.2903C0.596684 29.6181 0.763893 28.971 0.926086 28.3256C1.63171 25.5165 2.95266 23.0351 4.92907 20.9166C6.46405 19.2712 8.26155 17.9937 10.355 17.1393C10.6242 17.029 10.8031 17.0641 11.0372 17.1911C12.3214 17.8918 13.6992 18.2897 15.1606 18.385C17.1504 18.5154 19.0014 18.0573 20.737 17.0942C20.8574 17.0273 20.9627 17.0256 21.0898 17.0774C23.4374 18.0289 25.4373 19.4702 27.0876 21.3864C28.8868 23.4749 30.089 25.8726 30.7244 28.5547C30.8331 29.0145 30.9351 29.4743 30.9886 29.9442C31.0204 30.2234 31.0087 30.4993 30.9501 30.7719C30.8064 31.4307 30.2847 31.8571 29.4938 31.9708C29.1894 32.0142 28.8851 32.0243 28.5791 32.0243C24.3136 32.0243 20.0481 32.0243 15.7843 32.0243L15.786 32.0259Z" fill="#2C487F"/>
<path d="M7.76339 8.09974C7.79182 3.83256 11.1995 0.152293 15.7878 0.137244C20.1252 0.123867 23.7385 3.73224 23.7636 8.04623C23.7887 12.5191 20.2205 16.1208 15.7827 16.1308C11.3484 16.1408 7.76506 12.5442 7.76172 8.09974H7.76339Z" fill="#2C487F"/>
</svg>
