<svg width="47" height="47" viewBox="0 0 47 47" fill="none" xmlns="http://www.w3.org/2000/svg">
<path d="M46.4182 21.9213V24.8049C46.3507 25.354 46.2929 25.9042 46.2147 26.452C45.4995 31.4511 43.4502 35.8302 39.8815 39.4025C33.9589 45.3299 26.8058 47.5369 18.586 45.9151C12.9752 44.8086 8.42521 41.8382 4.98291 37.2834C0.998801 32.0134 -0.449639 26.0571 0.603881 19.5361C1.37325 14.7742 3.50678 10.6697 6.88406 7.2298C10.3408 3.71044 14.5055 1.50226 19.371 0.646202C20.2102 0.498108 21.059 0.407806 21.9042 0.291016C22.8651 0.291016 23.8271 0.291016 24.7879 0.291016C25.5729 0.393358 26.364 0.469211 27.1442 0.602858C31.4774 1.34333 35.3122 3.15418 38.5956 6.07635C42.6098 9.64868 45.1202 14.0855 46.0642 19.388C46.2135 20.2272 46.3014 21.0761 46.4182 21.9213ZM25.6536 27.8981C25.6921 29.5355 24.0835 30.6637 22.6941 30.1399C21.7574 29.7872 20.9916 29.2225 20.2559 28.5675C19.2819 27.6994 17.884 27.7945 17.0231 28.7385C16.1803 29.6632 16.2249 31.0418 17.1363 31.9472C18.1381 32.9405 19.2723 33.7448 20.5895 34.2613C20.9157 34.3889 21.0361 34.5382 21.047 34.9031C21.0867 36.2299 22.068 37.1955 23.3298 37.2076C24.5844 37.2196 25.5789 36.2636 25.6427 34.9332C25.6596 34.5912 25.7812 34.4552 26.0822 34.3263C28.7455 33.1813 30.3962 30.5156 30.265 27.6139C30.1265 24.5593 28.6215 22.5979 25.5946 21.601C24.5423 21.2543 23.4538 21.0219 22.3955 20.692C21.3299 20.3585 21.0723 19.9635 21.0361 18.851C20.9832 17.2449 22.5544 16.0396 24.0161 16.5947C24.9059 16.9318 25.656 17.4471 26.3471 18.0865C27.3464 19.0136 28.7612 18.9666 29.6509 18.007C30.5263 17.0619 30.4697 15.6736 29.5077 14.7333C28.4999 13.7472 27.3621 12.9501 26.0401 12.4384C25.7668 12.3324 25.6415 12.2072 25.6476 11.8906C25.662 11.1826 25.4092 10.5625 24.8601 10.0966C24.1437 9.48975 23.3214 9.34768 22.4617 9.70647C21.5442 10.0894 21.0843 10.8286 21.0374 11.8183C21.0265 12.0459 21.0349 12.2277 20.7556 12.3493C18.2091 13.451 16.7354 15.3895 16.4657 18.1491C16.2116 20.7389 17.1315 23.2385 19.7045 24.5521C20.2933 24.8531 20.9061 25.0951 21.5442 25.2709C22.4545 25.5225 23.3732 25.7453 24.2738 26.027C25.3562 26.3653 25.6331 26.7735 25.6536 27.9005V27.8981Z" fill="#3974E0"/>
</svg>
