<svg width="47" height="47" viewBox="0 0 47 47" fill="none" xmlns="http://www.w3.org/2000/svg">
<path fill-rule="evenodd" clip-rule="evenodd" d="M46.8371 21.9213V24.8049C46.8155 24.9807 46.7949 25.1566 46.7743 25.3325C46.7306 25.706 46.6868 26.0796 46.6336 26.452C45.9184 31.4511 43.8692 35.8302 40.3005 39.4025C34.3779 45.3299 27.2248 47.5369 19.0049 45.9151C13.3942 44.8086 8.84416 41.8382 5.40186 37.2834C1.41775 32.0134 -0.0306938 26.0571 1.02283 19.5361C1.7922 14.7742 3.92573 10.6697 7.30301 7.2298C10.7598 3.71044 14.9245 1.50226 19.7899 0.646202C20.3661 0.54453 20.9468 0.470097 21.5277 0.395632C21.7929 0.361632 22.0582 0.327625 22.3232 0.291016H25.2068C25.4543 0.323281 25.7024 0.352913 25.9506 0.382553L25.9506 0.382558C26.4896 0.446933 27.0289 0.511348 27.5631 0.602858C31.8964 1.34333 35.7312 3.15418 39.0146 6.07635C43.0288 9.64868 45.5392 14.0855 46.4831 19.388C46.5848 19.9594 46.6579 20.5352 46.7312 21.1113L46.7312 21.1114V21.1114C46.7655 21.3815 46.7998 21.6516 46.8371 21.9213ZM12.152 34.8923V31.1316L12.139 31.1186V27.293C12.152 26.476 12.9041 26.0351 13.6304 26.4241C13.6596 26.4399 13.6893 26.4556 13.7192 26.4715C13.8616 26.5472 14.0098 26.6259 14.1491 26.7224C14.3566 26.865 14.4603 26.8521 14.603 26.6057C15.8466 24.4317 17.0972 22.2646 18.3496 20.0944C18.8081 19.3 19.2667 18.5052 19.7254 17.7095C20.1144 17.0352 20.6202 16.9055 21.2945 17.2945C21.7411 17.555 22.1876 17.8122 22.6336 18.069C23.4309 18.5281 24.2263 18.9862 25.0164 19.4602C25.2887 19.6158 25.3795 19.5769 25.5351 19.3176C26.6551 17.3624 27.7819 15.4143 28.9107 13.4629C29.3242 12.7479 29.738 12.0325 30.1518 11.3162C30.5019 10.7197 31.0336 10.577 31.6172 10.9142L34.8463 12.7816C35.3909 13.1058 35.5336 13.6375 35.2353 14.1822L34.7685 14.9992C33.6532 16.925 32.5412 18.854 31.4291 20.783C30.3171 22.712 29.2051 24.641 28.0899 26.5668C28.0817 26.5801 28.0736 26.5935 28.0655 26.6068C27.9319 26.8265 27.8019 27.0403 27.5452 27.1503C27.1951 27.293 26.8838 27.2411 26.5596 27.0596C25.7741 26.5994 24.9838 26.1441 24.1916 25.6877C23.689 25.3981 23.1855 25.108 22.6821 24.8161C22.6691 24.8083 22.6565 24.8003 22.6442 24.7926C22.5338 24.7232 22.4487 24.6696 22.332 24.8679C21.6871 26.0082 21.0287 27.1418 20.3714 28.2735C20.1167 28.712 19.8622 29.1502 19.6087 29.5883C19.5309 29.718 19.5179 29.7958 19.6735 29.8736C19.8088 29.9452 19.9391 30.0217 20.0676 30.0971C20.1485 30.1446 20.2287 30.1916 20.309 30.2368C21.087 30.6906 21.087 31.5725 20.309 32.0264C18.118 33.2839 15.9141 34.5414 13.7101 35.799L13.7082 35.8001C12.8912 36.267 12.152 35.826 12.152 34.8923Z" fill="#3974E0"/>
</svg>
