<svg width="48" height="47" viewBox="0 0 48 47" fill="none" xmlns="http://www.w3.org/2000/svg">
<path fill-rule="evenodd" clip-rule="evenodd" d="M47.0461 24.803V21.9193C47.0088 21.6496 46.9745 21.3795 46.9402 21.1095V21.1095V21.1094L46.9401 21.1093C46.8669 20.5332 46.7937 19.9574 46.6921 19.3861C45.7481 14.0836 43.2378 9.64673 39.2235 6.07439C35.9402 3.15223 32.1054 1.34138 27.7721 0.600904C27.2379 0.509394 26.6986 0.44498 26.1596 0.380605L26.1596 0.3806C25.9114 0.35096 25.6633 0.321327 25.4158 0.289062H22.5322C22.2672 0.325672 22.0019 0.359679 21.7367 0.393679C21.1557 0.468144 20.5751 0.542577 19.9989 0.644249C15.1335 1.50031 10.9687 3.70849 7.51199 7.22785C4.13471 10.6677 2.00118 14.7723 1.23181 19.5342C0.178291 26.0552 1.62673 32.0115 5.61084 37.2815C9.05314 41.8363 13.6031 44.8066 19.2139 45.9131C27.4338 47.5349 34.5869 45.3279 40.5094 39.4005C44.0782 35.8282 46.1274 31.4492 46.8426 26.4501C46.8958 26.0776 46.9396 25.7041 46.9833 25.3306C47.0039 25.1546 47.0245 24.9787 47.0461 24.803ZM23.8238 11.2217H24.307C24.3198 11.2256 24.3346 11.2316 24.3494 11.2375L24.3495 11.2375C24.3643 11.2434 24.3791 11.2493 24.3918 11.2533C25.1209 11.4034 25.5872 11.8222 25.7991 12.4938C25.8924 12.8019 25.8924 13.1179 25.8754 13.4261C25.8585 13.6394 25.9178 13.7263 26.1722 13.7184C26.4438 13.7026 26.7192 13.7079 26.9933 13.7132H26.9933C27.1299 13.7158 27.2661 13.7184 27.4015 13.7184C27.4411 13.7184 27.476 13.7188 27.5069 13.7192C27.6294 13.7206 27.6873 13.7213 27.7139 13.6928C27.7378 13.6672 27.7365 13.6181 27.7341 13.5251C27.7332 13.4906 27.7321 13.45 27.7321 13.4024C27.7321 13.0073 27.7321 12.6123 27.9101 12.233C28.1899 11.6641 28.6816 11.356 29.3174 11.2217H29.8007C30.9113 11.593 31.3437 12.1066 31.3521 13.0705C31.3521 13.1264 31.3467 13.1874 31.3412 13.2489C31.3273 13.4049 31.3131 13.5646 31.386 13.6552C31.4744 13.7596 31.6406 13.7417 31.8078 13.7238C31.8811 13.716 31.9547 13.7081 32.0219 13.7105C33.7514 13.75 34.9637 14.872 34.9637 16.4759V31.48C34.9637 33.0681 33.7174 34.2217 32.0049 34.2217H29.3768H15.9818C15.5155 34.2217 15.0662 34.1664 14.6508 33.9767C13.5232 33.4474 12.9722 32.5941 12.9722 31.4168V17.1791V16.2784C13.0146 15.1406 13.8623 14.1293 15.0492 13.8211C15.4344 13.7167 15.8253 13.7147 16.2124 13.7127H16.2124C16.294 13.7123 16.3754 13.7119 16.4566 13.7105C16.497 13.7105 16.5326 13.7109 16.5639 13.7113C16.6861 13.7128 16.7435 13.7135 16.7697 13.6852C16.7929 13.6602 16.7916 13.6124 16.7892 13.5224C16.7883 13.4887 16.7872 13.449 16.7872 13.4024C16.7872 13.0073 16.7872 12.6123 16.9652 12.233C17.245 11.6641 17.7452 11.356 18.381 11.2217H18.8643C18.8925 11.2533 18.9283 11.2568 18.9641 11.2603C18.982 11.2621 18.9999 11.2638 19.0169 11.2691C19.8138 11.4745 20.3564 12.0829 20.3988 12.8572C20.4157 13.0784 20.4157 13.3076 20.3988 13.5288C20.3988 13.6631 20.4411 13.7105 20.5937 13.7105H21.5772C21.6399 13.7105 21.7073 13.7182 21.7751 13.7259C21.9458 13.7453 22.1184 13.7649 22.2215 13.6631C22.3127 13.5725 22.2949 13.4128 22.2775 13.2568C22.2707 13.1953 22.2639 13.1343 22.2639 13.0784C22.2639 12.5807 22.408 12.1382 22.7726 11.7669C23.0608 11.4666 23.4338 11.3244 23.8238 11.2217ZM23.9934 17.6531H23.9849H14.939C14.7186 17.6531 14.6593 17.7085 14.6593 17.9139V31.4089C14.6593 32.2148 15.134 32.6573 16.0072 32.6573H31.9286C32.8018 32.6573 33.2766 32.2148 33.2766 31.4089V17.9139C33.2766 17.7085 33.2257 17.6531 32.9968 17.6531H23.9934ZM19.3899 14.5164V13.0152C19.3899 12.5254 19.0508 12.1698 18.593 12.1698C18.1521 12.1698 17.8045 12.5254 17.8045 12.9994V16.0018C17.8045 16.4917 18.1606 16.8472 18.6099 16.8314C19.0508 16.8235 19.3814 16.468 19.3814 15.9939V14.5164H19.3899ZM30.3263 14.5164V12.9678C30.3263 12.6123 30.1144 12.3199 29.7922 12.2172C29.2666 12.0434 28.7494 12.4147 28.7494 13.0073C28.7438 13.6759 28.7457 14.3409 28.7475 15.0071V15.0075L28.7476 15.0086C28.7485 15.3418 28.7494 15.6753 28.7494 16.0097C28.7494 16.1203 28.7749 16.231 28.8088 16.3416C28.9275 16.6655 29.292 16.8788 29.6311 16.8393C30.0211 16.7919 30.3178 16.4838 30.3263 16.0887C30.332 15.7417 30.3301 15.3946 30.3282 15.0452C30.3273 14.8696 30.3263 14.6935 30.3263 14.5164ZM23.2812 14.4848V16.0097C23.2812 16.4917 23.6119 16.8393 24.0612 16.8393C24.4936 16.8393 24.8496 16.5154 24.8581 16.0413C24.8751 15.0142 24.8751 13.995 24.8581 12.9678C24.8581 12.4938 24.4936 12.1698 24.0612 12.1698C23.6119 12.1698 23.2812 12.5175 23.2812 12.9994V14.4769V14.4848ZM19.5425 27.806C19.4577 28.2406 19.3645 28.6751 19.2882 29.0228L19.2458 29.0386C19.2288 29.3072 19.2797 29.4652 19.4492 29.5759C19.6527 29.7102 19.8816 29.6707 20.102 29.6312C20.2335 29.6067 20.3639 29.5803 20.4941 29.554C20.7416 29.5039 20.988 29.4541 21.2381 29.4178C21.8739 29.323 22.3741 29.5284 22.7386 30.0183C22.9591 30.3106 23.171 30.6109 23.3829 30.9111L23.383 30.9111C23.739 31.4089 24.146 31.401 24.502 30.9111C24.5801 30.802 24.656 30.6929 24.7317 30.5842C24.8697 30.3858 25.007 30.1885 25.1548 29.9946C25.5109 29.5363 25.9941 29.3309 26.5961 29.4178C26.8544 29.4529 27.1093 29.504 27.363 29.5548C27.5089 29.584 27.6544 29.6131 27.7999 29.6391C28.4273 29.7497 28.724 29.4731 28.5968 28.8885C28.573 28.7776 28.5484 28.6667 28.5237 28.5556C28.4693 28.3104 28.4146 28.064 28.3679 27.8139C28.2662 27.2213 28.4866 26.7552 29.0122 26.4154C29.1733 26.3127 29.3387 26.212 29.504 26.1112C29.6693 26.0105 29.8346 25.9098 29.9957 25.807C30.4959 25.491 30.4959 25.1118 29.9957 24.7957C29.8304 24.689 29.6629 24.5863 29.4955 24.4836C29.328 24.3809 29.1606 24.2782 28.9953 24.1715C28.4866 23.8318 28.2662 23.3656 28.3764 22.7888C28.4112 22.5943 28.4549 22.4019 28.4984 22.2105C28.5397 22.0287 28.5807 21.8478 28.6138 21.6669C28.724 21.1217 28.4188 20.8452 27.8338 20.9558L27.8336 20.9558C27.4522 21.0269 27.0707 21.098 26.6808 21.1691C26.0365 21.2797 25.5279 21.0822 25.1548 20.5844C25.0446 20.4343 24.9365 20.2803 24.8284 20.1262C24.7203 19.9721 24.6122 19.818 24.502 19.6679C24.1544 19.186 23.7475 19.1939 23.3999 19.6679C23.3039 19.7972 23.2123 19.9293 23.1209 20.0612C22.9943 20.2437 22.868 20.426 22.7302 20.6002C22.3656 21.0743 21.8569 21.2639 21.2381 21.1612C20.9736 21.1174 20.7051 21.066 20.4382 21.0149C20.32 20.9923 20.2021 20.9697 20.0851 20.9479C19.4747 20.8294 19.1779 21.1138 19.2966 21.6827C19.3204 21.7936 19.3451 21.9044 19.3697 22.0156C19.4242 22.2608 19.4789 22.5071 19.5255 22.7572C19.6442 23.3577 19.4153 23.8318 18.8812 24.1715C18.7021 24.2888 18.5203 24.401 18.3372 24.5138C18.1997 24.5986 18.0614 24.6839 17.9232 24.772C17.4146 25.0959 17.4146 25.4752 17.9232 25.7991C18.0403 25.8719 18.1574 25.9426 18.274 26.0132C18.4869 26.1418 18.6986 26.2697 18.9067 26.4075C19.4323 26.7473 19.6527 27.2134 19.5425 27.806ZM27.2814 25.2082C27.3162 25.2353 27.3528 25.2638 27.3845 25.3014L27.4099 25.3093C27.2319 25.3804 27.1726 25.4989 27.1556 25.6648C27.0878 26.2337 26.8673 26.7473 26.4519 27.1818C26.3917 27.2423 26.3973 27.3122 26.4023 27.3747C26.4065 27.4267 26.4102 27.4735 26.3756 27.5058C26.3371 27.5381 26.2846 27.5345 26.2276 27.5306C26.1592 27.526 26.0843 27.5208 26.0196 27.5769C25.5279 27.9798 24.9429 28.1932 24.2901 28.2406C24.201 28.2447 24.1517 28.3013 24.1077 28.3517C24.068 28.3972 24.0327 28.4377 23.9764 28.4302C23.9311 28.4267 23.8992 28.3918 23.8636 28.3528C23.8193 28.3043 23.769 28.2493 23.6797 28.2406C23.0269 28.1932 22.4419 27.9798 21.9502 27.5769C21.8819 27.526 21.8088 27.5297 21.7426 27.5331C21.6854 27.536 21.6334 27.5387 21.5941 27.5058C21.5596 27.4736 21.5633 27.4284 21.5674 27.3776C21.5724 27.3163 21.5781 27.2467 21.5178 27.1818C21.0855 26.7315 20.8566 26.1863 20.8057 25.5937C20.7964 25.4989 20.7342 25.444 20.6809 25.3971C20.6365 25.358 20.5984 25.3243 20.6022 25.2777C20.606 25.2322 20.643 25.1976 20.6845 25.1587C20.7368 25.1097 20.7962 25.0541 20.8057 24.9616C20.865 24.377 21.0855 23.8397 21.5094 23.3972C21.5738 23.3328 21.5683 23.2591 21.5633 23.1938C21.5591 23.1389 21.5554 23.0899 21.5941 23.0575C21.6277 23.0297 21.6743 23.034 21.7268 23.0387C21.7938 23.0449 21.8704 23.0519 21.9417 22.9943C22.3995 22.615 22.9506 22.4096 23.5525 22.3385C23.7136 22.3227 23.8323 22.2595 23.9595 22.1568C24.0009 22.122 24.0404 22.161 24.0918 22.2117C24.1453 22.2647 24.2118 22.3304 24.307 22.3385C24.9514 22.378 25.5448 22.5992 26.028 23.0101C26.095 23.0683 26.1691 23.0564 26.2341 23.046C26.2925 23.0366 26.3435 23.0284 26.3756 23.0733C26.3969 23.103 26.3915 23.1425 26.3854 23.1865C26.377 23.2475 26.3674 23.3171 26.4265 23.3814C26.8589 23.8476 27.0963 24.4007 27.1471 25.009C27.1527 25.1081 27.2137 25.1556 27.2814 25.2082Z" fill="#3974E0"/>
</svg>
