<svg width="25" height="24" viewBox="0 0 25 24" fill="none" xmlns="http://www.w3.org/2000/svg">
<path fill-rule="evenodd" clip-rule="evenodd" d="M10.1694 13.2356H1.9575C1.09957 13.2356 0.672318 12.8463 0.687488 11.9521C0.702889 10.7443 0.699537 9.53601 0.696185 8.32793C0.694769 7.81725 0.693352 7.3066 0.693352 6.79602C0.693352 6.22325 0.691947 5.65039 0.690543 5.07749C0.687734 3.93161 0.684924 2.78559 0.693352 1.63996C0.700937 0.621898 0.995879 0.313463 1.99372 0.309249C3.21916 0.305471 4.44597 0.306095 5.67322 0.306718C7.18392 0.307485 8.6953 0.308253 10.2057 0.300813C11.0906 0.296599 11.4791 0.711239 11.4791 1.57929C11.4706 5.04812 11.4706 8.51723 11.4791 11.9866C11.4816 12.885 11.0173 13.2356 10.1694 13.2356ZM22.897 10.961C23.9749 10.9669 24.2571 11.2601 24.2647 12.3271C24.2727 13.4671 24.2703 14.6125 24.2679 15.7558V15.7562V15.7566L24.2679 15.7581C24.2668 16.3052 24.2657 16.8519 24.2657 17.3972C24.2657 17.959 24.2666 18.5209 24.2675 19.0827C24.2694 20.2064 24.2713 21.3301 24.2657 22.4538C24.2606 23.6008 23.9917 23.8865 22.8751 23.8865C20.2018 23.8955 17.5283 23.8955 14.8545 23.8865C13.7791 23.8823 13.485 23.6 13.485 22.5263C13.4726 19.1204 13.4726 15.7147 13.485 12.3094C13.4892 11.2391 13.7732 10.9669 14.8764 10.961C17.5497 10.9464 20.2232 10.9464 22.897 10.961ZM14.6682 8.9274C17.4656 8.94088 20.2633 8.94088 23.0613 8.9274C23.2288 8.9471 23.3986 8.92785 23.5575 8.87117C23.7163 8.8145 23.8599 8.72191 23.9771 8.60063C24.0943 8.47936 24.1819 8.33267 24.2332 8.17197C24.2844 8.01128 24.2978 7.84093 24.2724 7.6742C24.2583 5.63976 24.2583 3.60503 24.2724 1.57003C24.2774 0.691027 23.8644 0.293241 22.9922 0.305883C22.0808 0.315996 21.1695 0.312625 20.2582 0.309254C19.8026 0.307568 19.3469 0.305883 18.8913 0.305883C18.4249 0.305883 17.9586 0.306632 17.4922 0.307381C16.5597 0.308879 15.6272 0.310377 14.6951 0.305883C13.9173 0.300826 13.4925 0.660691 13.4891 1.44699C13.4807 3.54548 13.4841 5.64312 13.4891 7.74161C13.47 7.90134 13.4873 8.0633 13.5397 8.21539C13.5921 8.36747 13.6783 8.50573 13.7917 8.6198C13.9051 8.73386 14.0429 8.82079 14.1946 8.87406C14.3464 8.92732 14.5084 8.94557 14.6682 8.9274ZM7.44993 15.258C8.37192 15.259 9.29391 15.2599 10.2159 15.2599C10.3912 15.2363 10.5696 15.2541 10.7368 15.312C10.9039 15.3699 11.0551 15.4662 11.1782 15.5932C11.3013 15.7202 11.393 15.8743 11.4457 16.0432C11.4984 16.212 11.5107 16.3909 11.4817 16.5654C11.4781 17.4239 11.4791 18.2822 11.4801 19.1406C11.4815 20.2851 11.4829 21.4296 11.4733 22.5743C11.4657 23.5856 11.1674 23.8696 10.1493 23.8797C9.23858 23.8865 8.32705 23.8842 7.41552 23.882C6.95976 23.8809 6.50401 23.8797 6.04836 23.8797C5.6034 23.8797 5.15836 23.881 4.7133 23.8824C3.82307 23.885 2.93273 23.8876 2.04274 23.8797C1.0112 23.8705 0.701079 23.5839 0.694337 22.597C0.686775 21.5233 0.688127 20.4492 0.689479 19.3752C0.690688 18.4144 0.691898 17.4536 0.686724 16.4929C0.662837 16.3256 0.678175 16.155 0.731578 15.9946C0.784982 15.8342 0.874991 15.6885 0.994429 15.5689C1.11387 15.4493 1.25943 15.3591 1.41972 15.3055C1.58002 15.2519 1.75059 15.2363 1.91795 15.2599C3.76193 15.2543 5.60593 15.2562 7.44993 15.258Z" fill="white"/>
</svg>
