<svg width="26" height="25" viewBox="0 0 26 25" fill="none" xmlns="http://www.w3.org/2000/svg">
<path d="M22.1149 3.70583C17.2673 -1.14126 9.40752 -1.1418 4.55935 3.70583C-0.288283 8.55347 -0.287743 16.4132 4.55935 21.2614C9.40698 26.1079 17.2667 26.1085 22.1149 21.2614C26.962 16.4132 26.9614 8.55401 22.1149 3.70583ZM14.9557 17.8807C14.9557 18.7749 14.2309 19.4998 13.3366 19.4998C12.4423 19.4998 11.7175 18.7749 11.7175 17.8807V11.4042C11.7175 10.5099 12.4423 9.78508 13.3366 9.78508C14.2309 9.78508 14.9557 10.5099 14.9557 11.4042V17.8807ZM13.308 8.63658C12.3754 8.63658 11.7536 7.97598 11.7731 7.16049C11.7536 6.30559 12.3754 5.66497 13.3269 5.66497C14.2789 5.66497 14.8812 6.30613 14.9012 7.16049C14.9006 7.97598 14.2794 8.63658 13.308 8.63658Z" fill="#F73A7C"/>
</svg>
